<?xml version="1.0" standalone="no"?>
<!DOCTYPE svg PUBLIC "-//W3C//DTD SVG 20010904//EN"
 "http://www.w3.org/TR/2001/REC-SVG-20010904/DTD/svg10.dtd">
<svg version="1.0" xmlns="http://www.w3.org/2000/svg"
 width="1080.000000pt" height="1080.000000pt" viewBox="0 0 1080.000000 1080.000000"
 preserveAspectRatio="xMidYMid meet">

<g transform="translate(0.000000,1080.000000) scale(0.100000,-0.100000)"
fill="#000000" stroke="none">
<path d="M1167 9929 c-111 -26 -218 -116 -270 -227 l-32 -67 0 -655 0 -655 32
-67 c41 -88 113 -160 201 -201 l67 -32 635 -3 c611 -2 637 -2 700 17 120 37
224 141 261 261 19 63 19 89 17 700 l-3 635 -32 67 c-41 88 -113 160 -201 201
l-67 32 -635 2 c-350 1 -652 -3 -673 -8z m1262 -277 c19 -9 44 -30 55 -45 21
-28 21 -37 21 -627 0 -590 0 -599 -21 -627 -47 -65 -29 -63 -664 -63 -635 0
-617 -2 -664 63 -21 28 -21 37 -21 625 l0 597 22 31 c47 65 28 64 663 64 528
0 578 -1 609 -18z"/>
<path d="M1476 9371 c-66 -44 -66 -44 -66 -384 0 -337 0 -340 60 -391 l32 -26
316 0 c297 0 319 1 349 20 63 38 64 46 61 401 l-3 320 -42 40 -42 39 -318 0
c-295 0 -320 -2 -347 -19z"/>
<path d="M8299 9921 c-142 -46 -250 -170 -279 -321 -13 -71 -13 -1169 0 -1240
25 -130 112 -246 229 -303 l66 -32 660 0 660 0 65 32 c92 45 154 108 198 201
l37 77 3 610 c4 658 3 674 -48 776 -37 73 -132 160 -207 191 l-58 23 -635 2
c-588 2 -639 1 -691 -16z m1281 -267 c25 -10 48 -29 62 -53 l23 -36 0 -585 c0
-658 3 -630 -75 -670 -38 -19 -58 -20 -616 -20 -572 0 -577 0 -615 22 -72 40
-70 17 -67 682 l3 594 25 27 c50 55 40 54 652 55 498 0 573 -2 608 -16z"/>
<path d="M8633 9370 c-68 -41 -68 -40 -68 -385 0 -345 2 -355 68 -395 30 -19
52 -20 345 -20 352 0 356 1 393 72 17 34 19 62 19 335 0 333 -2 346 -69 390
-33 23 -38 23 -345 23 -291 0 -313 -1 -343 -20z"/>
<path d="M3144 9891 c-70 -42 -62 -141 13 -176 118 -56 199 120 83 180 -38 20
-58 19 -96 -4z"/>
<path d="M3990 9903 c-85 -33 -88 -150 -5 -190 30 -14 38 -15 72 -2 51 19 81
76 63 118 -23 56 -86 92 -130 74z"/>
<path d="M4803 9895 c-61 -26 -73 -102 -24 -157 24 -27 36 -33 71 -33 35 0 47
6 71 33 32 36 36 69 14 112 -15 29 -61 60 -87 60 -7 -1 -27 -7 -45 -15z"/>
<path d="M5090 9903 c-56 -22 -83 -89 -56 -142 16 -31 61 -61 91 -61 55 0 112
72 99 124 -12 51 -90 97 -134 79z"/>
<path d="M6174 9891 c-59 -36 -68 -108 -19 -156 53 -54 136 -35 163 36 12 33
12 41 -3 72 -16 33 -64 67 -97 67 -7 0 -27 -9 -44 -19z"/>
<path d="M6464 9900 c-62 -25 -82 -107 -39 -158 33 -39 74 -48 118 -27 78 37
76 139 -3 180 -32 17 -45 18 -76 5z"/>
<path d="M7020 9903 c-8 -3 -27 -17 -42 -31 -62 -58 -15 -167 72 -167 35 0 47
6 71 33 48 54 35 123 -31 157 -30 16 -45 17 -70 8z"/>
<path d="M7564 9900 c-62 -25 -82 -107 -39 -158 33 -39 74 -48 118 -27 78 37
76 139 -3 180 -32 17 -45 18 -76 5z"/>
<path d="M3679 9601 c-64 -64 -20 -171 70 -171 55 0 90 32 98 87 5 39 2 46
-30 78 -46 46 -95 49 -138 6z"/>
<path d="M4229 9601 c-62 -62 -20 -171 66 -171 47 0 71 13 90 50 24 46 19 78
-19 116 -45 45 -95 47 -137 5z"/>
<path d="M5073 9619 c-30 -16 -56 -74 -48 -107 3 -15 18 -39 33 -54 68 -72
193 3 162 96 -6 19 -19 41 -30 51 -23 21 -88 28 -117 14z"/>
<path d="M5329 9601 c-22 -23 -29 -39 -29 -69 0 -92 106 -137 171 -73 42 42
40 92 -5 137 -45 45 -95 47 -137 5z"/>
<path d="M7004 9620 c-32 -13 -54 -50 -54 -91 0 -89 108 -133 171 -70 42 42
40 92 -5 137 -35 35 -68 42 -112 24z"/>
<path d="M7554 9620 c-50 -20 -68 -84 -39 -140 31 -59 107 -69 156 -21 79 79
-12 204 -117 161z"/>
<path d="M3175 9353 c-58 -15 -95 -76 -76 -125 14 -36 68 -78 101 -78 68 0
118 86 86 147 -12 24 -73 67 -88 62 -1 -1 -12 -4 -23 -6z"/>
<path d="M3434 9346 c-87 -38 -84 -149 5 -186 63 -26 131 20 131 87 0 47 -22
81 -66 99 -39 16 -32 16 -70 0z"/>
<path d="M3723 9353 c-12 -2 -33 -16 -47 -30 -61 -61 -10 -173 79 -173 36 0
95 59 95 94 0 42 -28 86 -65 102 -19 8 -36 13 -37 13 -2 -1 -13 -4 -25 -6z"/>
<path d="M4273 9353 c-39 -8 -73 -52 -73 -95 0 -53 51 -108 100 -108 41 0 100
56 100 94 0 42 -28 86 -65 102 -19 8 -36 13 -37 13 -2 -1 -13 -4 -25 -6z"/>
<path d="M4534 9346 c-62 -27 -80 -84 -45 -142 52 -86 181 -55 181 43 0 47
-22 81 -66 99 -39 16 -32 16 -70 0z"/>
<path d="M4823 9353 c-39 -8 -73 -52 -73 -95 0 -53 51 -108 100 -108 41 0 100
56 100 94 0 42 -28 86 -65 102 -19 8 -36 13 -37 13 -2 -1 -13 -4 -25 -6z"/>
<path d="M5090 9349 c-61 -24 -84 -82 -56 -138 17 -32 61 -61 93 -61 62 0 117
83 91 136 -24 51 -84 80 -128 63z"/>
<path d="M5373 9353 c-35 -7 -73 -59 -73 -100 0 -48 54 -103 100 -103 44 0
100 56 100 99 0 42 -27 81 -67 97 -18 8 -34 13 -35 13 -2 -1 -13 -4 -25 -6z"/>
<path d="M6733 9345 c-32 -13 -63 -59 -63 -91 0 -29 39 -81 70 -94 44 -18 89
-2 118 40 29 43 24 83 -16 121 -34 34 -69 41 -109 24z"/>
<path d="M7023 9353 c-35 -7 -73 -59 -73 -100 0 -48 54 -103 100 -103 45 0
100 56 100 102 0 43 -23 76 -66 94 -18 8 -35 13 -36 13 -2 -1 -13 -4 -25 -6z"/>
<path d="M7283 9345 c-32 -14 -63 -59 -63 -92 0 -31 36 -79 69 -93 98 -40 181
86 106 159 -37 36 -71 44 -112 26z"/>
<path d="M7573 9353 c-35 -7 -73 -59 -73 -100 0 -44 54 -103 95 -103 82 0 135
93 89 159 -14 19 -76 55 -86 50 -2 -1 -13 -4 -25 -6z"/>
<path d="M3421 9066 c-57 -32 -66 -98 -20 -151 42 -47 96 -49 140 -6 81 81
-19 213 -120 157z"/>
<path d="M3679 9051 c-64 -64 -20 -171 70 -171 55 0 90 32 98 87 5 39 2 46
-30 78 -46 46 -95 49 -138 6z"/>
<path d="M4229 9051 c-62 -62 -20 -171 66 -171 47 0 71 13 90 50 24 46 19 78
-19 116 -45 45 -95 47 -137 5z"/>
<path d="M4504 9046 c-24 -24 -34 -43 -34 -66 0 -47 55 -100 105 -100 99 0
133 139 45 185 -46 24 -78 19 -116 -19z"/>
<path d="M5329 9051 c-23 -23 -29 -38 -29 -71 0 -33 6 -48 29 -71 63 -62 171
-20 171 66 0 29 -8 45 -34 71 -45 45 -95 47 -137 5z"/>
<path d="M6158 9051 c-27 -24 -33 -36 -33 -71 0 -82 96 -129 159 -79 38 30 49
64 36 105 -25 75 -104 97 -162 45z"/>
<path d="M6429 9051 c-22 -23 -29 -39 -29 -69 0 -92 106 -137 171 -73 42 42
40 92 -5 137 -45 45 -95 47 -137 5z"/>
<path d="M6708 9051 c-27 -24 -33 -36 -33 -71 0 -87 109 -134 167 -72 36 37
43 73 24 110 -35 68 -103 82 -158 33z"/>
<path d="M7258 9051 c-27 -24 -33 -36 -33 -71 0 -35 6 -47 33 -71 78 -70 194
-1 162 97 -25 75 -104 97 -162 45z"/>
<path d="M7529 9051 c-63 -64 -17 -170 74 -171 53 0 97 43 97 95 0 29 -8 45
-34 71 -45 45 -95 47 -137 5z"/>
<path d="M3156 8795 c-56 -29 -75 -78 -51 -128 44 -94 171 -80 191 20 8 39
-23 94 -61 111 -34 15 -44 15 -79 -3z"/>
<path d="M3423 8791 c-56 -35 -70 -96 -33 -143 62 -79 180 -46 180 51 0 81
-82 132 -147 92z"/>
<path d="M4806 8795 c-42 -22 -55 -44 -56 -91 0 -56 43 -99 101 -99 34 0 46 6
70 33 32 36 36 69 14 112 -15 29 -60 60 -87 60 -7 0 -26 -7 -42 -15z"/>
<path d="M5364 8800 c-65 -26 -83 -109 -35 -162 24 -27 36 -33 71 -33 35 0 47
6 71 33 16 18 29 44 29 58 0 38 -27 82 -60 99 -32 17 -45 18 -76 5z"/>
<path d="M5920 8803 c-8 -3 -27 -17 -42 -31 -62 -58 -15 -167 72 -167 35 0 47
6 71 33 16 18 29 44 29 58 0 69 -71 128 -130 107z"/>
<path d="M6724 8792 c-59 -37 -68 -109 -19 -157 33 -34 70 -41 111 -22 67 33
80 109 26 160 -38 36 -79 43 -118 19z"/>
<path d="M3421 8516 c-13 -7 -30 -24 -37 -37 -56 -101 76 -201 157 -120 81 81
-19 213 -120 157z"/>
<path d="M3974 8519 c-27 -13 -54 -60 -54 -93 0 -14 14 -41 31 -61 39 -45 91
-49 137 -10 89 75 -8 215 -114 164z"/>
<path d="M4521 8516 c-59 -33 -67 -102 -17 -152 45 -45 95 -47 137 -5 81 81
-19 213 -120 157z"/>
<path d="M4779 8501 c-64 -64 -20 -171 70 -171 55 0 90 32 98 87 5 39 2 46
-30 78 -46 46 -95 49 -138 6z"/>
<path d="M5605 8497 c-47 -47 -48 -86 -1 -133 41 -41 89 -46 130 -13 37 29 49
64 36 104 -15 44 -41 66 -89 72 -36 5 -44 2 -76 -30z"/>
<path d="M5879 8501 c-64 -64 -20 -171 70 -171 55 0 90 32 98 87 5 39 2 46
-30 78 -46 46 -95 49 -138 6z"/>
<path d="M7258 8501 c-27 -24 -33 -36 -33 -71 0 -35 6 -47 33 -71 82 -73 200
4 159 104 -30 71 -102 89 -159 38z"/>
<path d="M7529 8501 c-33 -34 -38 -75 -14 -121 46 -88 185 -54 185 45 0 29 -8
45 -34 71 -45 45 -95 47 -137 5z"/>
<path d="M3173 8252 c-28 -4 -69 -46 -77 -78 -14 -53 47 -124 107 -124 36 0
85 45 93 85 12 67 -53 129 -123 117z"/>
<path d="M4273 8252 c-39 -6 -73 -50 -73 -94 0 -53 51 -108 100 -108 41 0 100
56 100 94 0 67 -61 119 -127 108z"/>
<path d="M3676 8224 c-62 -63 -12 -174 79 -174 36 0 95 59 95 95 0 91 -111
141 -174 79z"/>
<path d="M4776 8224 c-20 -20 -26 -36 -26 -68 1 -59 46 -106 103 -106 38 0 97
57 97 94 0 35 -25 83 -49 96 -38 20 -96 12 -125 -16z"/>
<path d="M5326 8219 c-38 -45 -35 -92 8 -135 25 -25 43 -34 66 -34 23 0 42 9
66 34 38 38 43 70 19 116 -19 37 -43 50 -93 50 -33 0 -45 -6 -66 -31z"/>
<path d="M5881 8224 c-25 -21 -31 -33 -31 -66 0 -32 7 -47 34 -74 84 -84 206
10 151 116 -29 57 -102 68 -154 24z"/>
<path d="M6429 8221 c-42 -42 -40 -92 5 -137 37 -37 70 -43 115 -20 90 47 53
186 -49 186 -33 0 -48 -6 -71 -29z"/>
<path d="M6979 8221 c-42 -42 -40 -92 5 -137 84 -84 206 10 151 116 -31 59
-107 69 -156 21z"/>
<path d="M7529 8221 c-42 -42 -40 -92 5 -137 36 -36 70 -43 109 -23 96 49 64
189 -43 189 -33 0 -48 -6 -71 -29z"/>
<path d="M3150 7967 c-14 -7 -33 -29 -43 -49 -16 -33 -17 -40 -3 -71 35 -85
141 -94 182 -15 22 42 11 90 -27 122 -33 28 -70 33 -109 13z"/>
<path d="M3418 7963 c-55 -35 -63 -96 -17 -148 27 -30 37 -35 74 -35 36 0 48
5 69 31 75 89 -28 213 -126 152z"/>
<path d="M3704 7970 c-60 -24 -73 -112 -25 -161 61 -60 156 -27 168 58 5 39 2
46 -30 78 -36 36 -68 43 -113 25z"/>
<path d="M6158 7951 c-87 -78 14 -216 117 -161 13 7 31 28 40 47 22 45 6 97
-39 124 -44 27 -80 24 -118 -10z"/>
<path d="M6448 7964 c-89 -48 -50 -184 52 -184 33 0 48 6 71 29 42 42 40 92
-5 137 -38 38 -73 43 -118 18z"/>
<path d="M7258 7951 c-91 -81 23 -223 125 -156 59 39 52 136 -12 169 -44 23
-77 20 -113 -13z"/>
<path d="M2334 7696 c-66 -29 -84 -101 -38 -155 32 -38 80 -49 122 -27 38 20
52 44 52 88 0 43 -24 76 -66 94 -39 16 -32 16 -70 0z"/>
<path d="M2604 7694 c-105 -52 -49 -214 65 -189 37 8 81 58 81 92 0 37 -30 81
-66 98 -39 18 -41 18 -80 -1z"/>
<path d="M3985 7696 c-63 -27 -81 -89 -43 -146 47 -69 142 -60 174 15 12 30
12 39 0 69 -23 56 -81 84 -131 62z"/>
<path d="M4530 7692 c-19 -9 -41 -30 -48 -45 -38 -80 47 -171 129 -137 39 17
59 46 59 90 0 45 -23 78 -66 96 -41 17 -32 17 -74 -4z"/>
<path d="M5364 7700 c-34 -13 -64 -59 -64 -97 0 -48 54 -103 100 -103 41 0
100 56 100 94 0 42 -28 86 -65 102 -39 16 -42 16 -71 4z"/>
<path d="M5633 7695 c-31 -13 -63 -59 -63 -90 0 -30 30 -75 61 -91 80 -41 170
38 135 119 -26 61 -78 86 -133 62z"/>
<path d="M5923 7703 c-36 -7 -73 -59 -73 -103 0 -31 6 -44 35 -69 40 -35 73
-39 115 -14 71 42 62 146 -15 179 -19 8 -36 13 -37 13 -2 -1 -13 -4 -25 -6z"/>
<path d="M6473 7703 c-35 -7 -73 -59 -73 -100 0 -46 54 -103 97 -103 29 0 68
21 90 50 18 22 16 82 -3 109 -14 19 -76 55 -86 50 -2 -1 -13 -4 -25 -6z"/>
<path d="M7283 7696 c-32 -15 -63 -60 -63 -93 0 -31 36 -79 69 -93 45 -18 90
-3 119 40 29 43 24 83 -16 122 -34 34 -68 41 -109 24z"/>
<path d="M8114 7696 c-72 -32 -86 -106 -30 -162 22 -22 44 -34 61 -34 58 0
104 45 105 100 0 45 -23 78 -66 96 -39 16 -32 16 -70 0z"/>
<path d="M8664 7696 c-66 -29 -84 -101 -38 -155 32 -38 80 -49 122 -27 38 20
52 44 52 88 0 43 -24 76 -66 94 -39 16 -32 16 -70 0z"/>
<path d="M9214 7696 c-66 -29 -84 -101 -38 -155 32 -38 80 -49 122 -27 38 20
52 44 52 88 0 43 -24 76 -66 94 -39 16 -32 16 -70 0z"/>
<path d="M9764 7696 c-66 -29 -84 -101 -38 -155 32 -38 80 -49 122 -27 38 20
52 44 52 88 0 43 -24 76 -66 94 -39 16 -32 16 -70 0z"/>
<path d="M928 7401 c-27 -24 -33 -36 -33 -71 0 -35 6 -47 33 -71 59 -53 139
-34 162 37 33 99 -84 175 -162 105z"/>
<path d="M1491 7414 c-13 -9 -29 -32 -37 -50 -27 -65 24 -134 99 -134 67 0
113 68 87 131 -26 63 -98 88 -149 53z"/>
<path d="M2038 7410 c-39 -30 -53 -73 -38 -110 40 -95 171 -92 196 4 14 57
-41 126 -101 126 -18 0 -44 -9 -57 -20z"/>
<path d="M2321 7416 c-48 -27 -63 -84 -36 -136 31 -59 107 -69 156 -21 80 81
-20 212 -120 157z"/>
<path d="M3141 7414 c-13 -9 -29 -32 -37 -50 -27 -65 24 -134 99 -134 67 0
113 68 87 131 -26 63 -98 88 -149 53z"/>
<path d="M3421 7416 c-13 -7 -30 -24 -37 -37 -56 -101 76 -201 157 -120 80 81
-20 212 -120 157z"/>
<path d="M5058 7401 c-27 -24 -33 -36 -33 -70 0 -107 144 -141 190 -44 22 45
6 97 -39 124 -44 27 -80 24 -118 -10z"/>
<path d="M5604 7396 c-25 -24 -34 -43 -34 -66 0 -49 55 -100 108 -100 73 0
117 70 86 136 -33 70 -107 83 -160 30z"/>
<path d="M5879 7401 c-23 -23 -29 -38 -29 -71 0 -33 6 -48 29 -71 63 -62 171
-20 171 66 0 29 -8 45 -34 71 -45 45 -95 47 -137 5z"/>
<path d="M6159 7402 c-28 -25 -34 -37 -34 -72 0 -35 6 -47 33 -71 81 -73 200
4 159 103 -18 44 -38 59 -85 65 -33 4 -44 1 -73 -25z"/>
<path d="M6454 7420 c-60 -24 -73 -112 -25 -161 63 -62 171 -20 171 66 0 29
-8 45 -34 71 -35 35 -68 42 -112 24z"/>
<path d="M7258 7401 c-27 -24 -33 -36 -33 -71 0 -35 6 -47 33 -71 82 -73 200
4 159 104 -30 71 -102 89 -159 38z"/>
<path d="M7550 7417 c-56 -28 -67 -111 -21 -158 63 -62 171 -20 171 66 0 29
-8 45 -34 71 -37 37 -72 43 -116 21z"/>
<path d="M7818 7410 c-39 -30 -53 -73 -38 -110 40 -95 171 -92 196 4 14 57
-41 126 -101 126 -18 0 -44 -9 -57 -20z"/>
<path d="M8358 7401 c-27 -24 -33 -36 -33 -71 0 -35 6 -47 33 -71 59 -53 139
-34 162 37 33 99 -84 175 -162 105z"/>
<path d="M8650 7417 c-56 -28 -67 -111 -21 -158 63 -62 171 -20 171 66 0 29
-8 45 -34 71 -37 37 -72 43 -116 21z"/>
<path d="M8921 7414 c-13 -9 -29 -32 -37 -50 -27 -65 24 -134 99 -134 67 0
113 68 87 131 -26 63 -98 88 -149 53z"/>
<path d="M9201 7416 c-13 -7 -30 -24 -37 -37 -56 -101 76 -201 157 -120 42 42
40 92 -5 137 -37 37 -73 43 -115 20z"/>
<path d="M1477 7125 c-35 -35 -41 -69 -21 -111 33 -70 107 -83 160 -30 39 39
44 77 17 116 -27 39 -45 49 -89 50 -31 0 -48 -6 -67 -25z"/>
<path d="M1749 7121 c-43 -43 -40 -92 6 -138 32 -32 39 -35 78 -30 125 17 113
197 -13 197 -33 0 -48 -6 -71 -29z"/>
<path d="M2033 7132 c-54 -42 -49 -127 11 -163 42 -26 79 -24 114 6 51 43 51
107 1 154 -28 26 -95 28 -126 3z"/>
<path d="M2576 7124 c-62 -63 -12 -174 79 -174 38 0 95 59 95 97 0 57 -47 102
-106 103 -32 0 -48 -6 -68 -26z"/>
<path d="M3127 7125 c-35 -35 -41 -69 -21 -111 33 -70 107 -83 160 -30 39 39
44 77 17 116 -27 39 -45 49 -89 50 -31 0 -48 -6 -67 -25z"/>
<path d="M3676 7124 c-52 -53 -24 -152 48 -170 74 -18 140 48 122 122 -18 72
-117 100 -170 48z"/>
<path d="M4226 7124 c-20 -20 -26 -36 -26 -68 1 -59 46 -106 103 -106 40 0 97
57 97 97 0 57 -47 102 -106 103 -32 0 -48 -6 -68 -26z"/>
<path d="M4776 7124 c-52 -53 -24 -152 48 -170 74 -18 140 48 122 122 -19 73
-116 101 -170 48z"/>
<path d="M5329 7121 c-42 -42 -40 -92 5 -137 84 -84 206 10 151 116 -31 59
-107 69 -156 21z"/>
<path d="M5881 7124 c-77 -64 -5 -195 94 -170 52 13 84 69 71 122 -19 73 -106
98 -165 48z"/>
<path d="M6429 7121 c-42 -42 -40 -92 5 -137 36 -36 70 -43 109 -23 96 49 64
189 -43 189 -33 0 -48 -6 -71 -29z"/>
<path d="M6705 7126 c-44 -44 -42 -109 5 -151 27 -25 85 -30 115 -11 35 23 58
71 50 106 -16 72 -120 106 -170 56z"/>
<path d="M7529 7121 c-42 -42 -40 -92 5 -137 38 -38 70 -43 116 -19 91 47 53
185 -50 185 -33 0 -48 -6 -71 -29z"/>
<path d="M8355 7126 c-49 -49 -40 -121 19 -157 44 -27 80 -24 118 10 69 62 25
171 -69 171 -33 0 -50 -6 -68 -24z"/>
<path d="M8913 7135 c-77 -54 -27 -185 71 -185 36 0 84 45 92 86 6 35 -11 75
-45 101 -22 17 -92 16 -118 -2z"/>
<path d="M9179 7121 c-43 -43 -40 -92 6 -138 32 -32 39 -35 78 -30 125 17 113
197 -13 197 -33 0 -48 -6 -71 -29z"/>
<path d="M9463 7132 c-54 -42 -49 -127 11 -163 44 -27 80 -24 118 10 27 24 33
36 33 70 0 58 -43 101 -99 101 -23 0 -51 -8 -63 -18z"/>
<path d="M955 6871 c-67 -28 -81 -110 -28 -163 57 -57 141 -36 164 40 9 32 8
44 -5 70 -26 50 -82 72 -131 53z"/>
<path d="M1500 6867 c-14 -7 -33 -29 -43 -49 -16 -32 -16 -40 -4 -70 27 -62
77 -87 133 -63 32 13 64 58 64 90 0 29 -30 74 -60 90 -35 18 -57 19 -90 2z"/>
<path d="M2854 6846 c-40 -40 -44 -73 -14 -121 37 -59 106 -66 155 -15 41 43
38 95 -9 137 -48 45 -87 44 -132 -1z"/>
<path d="M3150 6868 c-14 -7 -33 -30 -43 -51 -18 -36 -18 -38 0 -74 11 -24 32
-45 55 -56 33 -16 40 -17 72 -3 42 18 72 70 62 109 -16 65 -91 103 -146 75z"/>
<path d="M3404 6846 c-38 -38 -43 -70 -18 -117 18 -36 73 -62 109 -53 38 9 75
59 75 101 0 48 -54 103 -100 103 -23 0 -41 -9 -66 -34z"/>
<path d="M6998 6864 c-34 -18 -48 -43 -48 -86 0 -43 24 -76 66 -94 29 -12 39
-12 68 0 74 31 88 106 32 162 -38 38 -73 43 -118 18z"/>
<path d="M7551 6866 c-48 -27 -66 -100 -35 -145 9 -13 32 -29 50 -37 29 -12
39 -12 68 0 74 31 88 106 32 162 -37 37 -73 43 -115 20z"/>
<path d="M7833 6870 c-25 -10 -63 -65 -63 -91 0 -25 43 -83 73 -97 39 -19 93
0 118 42 23 38 24 58 4 96 -25 49 -82 70 -132 50z"/>
<path d="M8385 6871 c-67 -28 -81 -110 -28 -163 57 -57 141 -36 164 40 9 32 8
44 -5 70 -26 50 -82 72 -131 53z"/>
<path d="M9201 6866 c-70 -39 -63 -149 12 -181 43 -18 82 -9 112 27 37 44 34
91 -9 134 -37 37 -73 43 -115 20z"/>
<path d="M927 6576 c-51 -47 -43 -120 17 -157 44 -27 80 -24 118 10 27 24 33
36 33 70 0 87 -105 135 -168 77z"/>
<path d="M1199 6571 c-42 -42 -40 -92 5 -137 38 -38 70 -43 116 -19 91 47 53
185 -50 185 -33 0 -48 -6 -71 -29z"/>
<path d="M1477 6575 c-32 -33 -39 -72 -20 -113 32 -68 106 -81 159 -28 44 44
45 82 3 131 -26 30 -37 35 -74 35 -32 0 -48 -6 -68 -25z"/>
<path d="M2031 6579 c-52 -49 -46 -124 13 -160 44 -27 80 -24 118 10 45 40 46
96 3 141 -36 38 -98 42 -134 9z"/>
<path d="M2299 6571 c-43 -43 -40 -92 6 -138 32 -32 39 -35 78 -30 125 17 113
197 -13 197 -33 0 -48 -6 -71 -29z"/>
<path d="M2576 6574 c-63 -64 -13 -174 80 -174 16 0 38 12 60 34 44 44 45 82
3 131 -26 30 -37 35 -74 35 -32 0 -48 -6 -69 -26z"/>
<path d="M3128 6573 c-36 -39 -42 -66 -22 -108 33 -71 106 -85 160 -31 39 39
44 77 17 116 -27 39 -45 49 -89 50 -31 0 -46 -6 -66 -27z"/>
<path d="M3399 6571 c-43 -43 -40 -92 6 -138 32 -32 39 -35 78 -30 125 17 113
197 -13 197 -33 0 -48 -6 -71 -29z"/>
<path d="M6979 6571 c-42 -42 -40 -92 5 -137 84 -84 206 10 151 116 -31 59
-107 69 -156 21z"/>
<path d="M7529 6571 c-42 -42 -40 -92 5 -137 38 -38 70 -43 116 -19 91 47 53
185 -50 185 -33 0 -48 -6 -71 -29z"/>
<path d="M8079 6571 c-42 -42 -40 -92 5 -137 36 -36 70 -43 109 -23 63 32 76
106 28 158 -40 43 -100 44 -142 2z"/>
<path d="M8629 6571 c-42 -42 -40 -92 5 -137 38 -38 70 -43 116 -19 91 47 53
185 -50 185 -33 0 -48 -6 -71 -29z"/>
<path d="M9457 6575 c-35 -35 -41 -69 -21 -111 32 -66 103 -82 156 -35 27 24
33 36 33 70 0 88 -107 136 -168 76z"/>
<path d="M1491 6314 c-13 -9 -29 -32 -37 -50 -27 -65 24 -134 99 -134 90 0
126 112 57 175 -28 25 -90 30 -119 9z"/>
<path d="M1754 6296 c-40 -40 -44 -75 -14 -123 50 -83 180 -43 180 54 0 48
-54 103 -100 103 -23 0 -41 -9 -66 -34z"/>
<path d="M2042 6314 c-59 -41 -63 -114 -10 -159 80 -67 197 11 158 106 -26 62
-98 88 -148 53z"/>
<path d="M2321 6316 c-48 -27 -63 -84 -36 -136 46 -88 185 -54 185 45 0 29 -8
45 -34 71 -37 37 -73 43 -115 20z"/>
<path d="M2854 6296 c-40 -40 -44 -75 -14 -123 50 -82 182 -44 182 53 0 31 -7
45 -36 71 -48 45 -87 44 -132 -1z"/>
<path d="M3404 6296 c-67 -67 -24 -165 73 -166 34 0 46 5 67 31 58 68 10 169
-80 169 -16 0 -38 -12 -60 -34z"/>
<path d="M3704 6320 c-33 -13 -54 -50 -54 -93 0 -84 102 -129 167 -73 23 20
28 32 28 71 0 40 -5 51 -33 76 -33 30 -67 36 -108 19z"/>
<path d="M7005 6318 c-94 -51 -61 -188 45 -188 33 0 48 6 71 29 42 42 40 92
-5 137 -36 36 -73 43 -111 22z"/>
<path d="M7260 6303 c-19 -18 -33 -41 -36 -64 -5 -30 -1 -41 26 -72 27 -32 38
-37 74 -37 51 0 81 20 96 64 21 66 -33 136 -104 136 -14 0 -39 -12 -56 -27z"/>
<path d="M7822 6314 c-59 -41 -63 -114 -10 -159 58 -49 146 -23 164 49 20 80
-87 157 -154 110z"/>
<path d="M8101 6316 c-57 -32 -68 -111 -22 -157 63 -62 171 -20 171 66 0 29
-8 45 -34 71 -37 37 -73 43 -115 20z"/>
<path d="M9184 6296 c-38 -38 -43 -70 -19 -116 46 -88 185 -54 185 45 0 50
-53 105 -100 105 -23 0 -41 -9 -66 -34z"/>
<path d="M9748 6313 c-55 -34 -64 -104 -19 -152 61 -65 171 -23 171 64 0 29
-8 45 -34 71 -38 38 -75 44 -118 17z"/>
<path d="M4838 6058 c-65 -33 -102 -61 -172 -130 -72 -72 -86 -91 -76 -103 9
-10 18 -12 38 -4 14 5 62 9 106 8 75 -1 85 1 131 30 27 17 54 31 60 31 5 0 33
-15 60 -33 49 -33 51 -33 159 -32 73 1 111 5 114 13 6 20 -149 166 -218 204
-112 63 -108 63 -202 16z"/>
<path d="M933 6035 c-32 -22 -48 -79 -33 -115 17 -41 43 -61 88 -67 33 -4 44
-1 73 25 28 25 34 37 34 71 0 58 -43 101 -100 101 -22 0 -50 -7 -62 -15z"/>
<path d="M1199 6021 c-43 -43 -40 -92 6 -138 32 -32 39 -35 78 -30 125 17 113
197 -13 197 -33 0 -48 -6 -71 -29z"/>
<path d="M1477 6025 c-48 -49 -37 -129 22 -159 47 -25 79 -20 117 18 44 44 45
82 3 131 -26 30 -37 35 -74 35 -32 0 -48 -6 -68 -25z"/>
<path d="M2027 6024 c-51 -51 -40 -126 23 -159 43 -22 76 -18 112 14 27 24 33
36 33 70 0 88 -107 136 -168 75z"/>
<path d="M2299 6021 c-43 -43 -40 -92 6 -138 32 -32 39 -35 78 -30 125 17 113
197 -13 197 -33 0 -48 -6 -71 -29z"/>
<path d="M2576 6024 c-62 -63 -12 -174 79 -174 38 0 95 59 95 97 0 57 -47 102
-106 103 -32 0 -48 -6 -68 -26z"/>
<path d="M3128 6023 c-36 -39 -42 -66 -22 -108 33 -71 106 -85 160 -31 44 44
45 82 3 131 -26 30 -37 35 -73 35 -33 0 -48 -6 -68 -27z"/>
<path d="M3676 6024 c-52 -53 -24 -152 48 -170 74 -18 140 48 122 122 -18 72
-117 100 -170 48z"/>
<path d="M6979 6021 c-42 -42 -40 -92 5 -137 84 -84 206 10 151 116 -31 59
-107 69 -156 21z"/>
<path d="M7529 6021 c-43 -43 -40 -92 6 -138 32 -32 39 -35 78 -30 125 17 113
197 -13 197 -33 0 -48 -6 -71 -29z"/>
<path d="M8907 6025 c-31 -32 -39 -71 -23 -110 17 -41 38 -56 85 -62 36 -5 44
-2 76 30 45 45 47 83 4 132 -26 30 -37 35 -74 35 -32 0 -48 -6 -68 -25z"/>
<path d="M9179 6021 c-43 -43 -40 -92 6 -138 32 -32 39 -35 78 -30 125 17 113
197 -13 197 -33 0 -48 -6 -71 -29z"/>
<path d="M9457 6024 c-51 -51 -40 -126 23 -159 43 -22 76 -18 112 14 27 24 33
36 33 70 0 88 -107 136 -168 75z"/>
<path d="M953 5770 c-34 -14 -65 -69 -58 -105 6 -35 48 -81 81 -89 52 -13 124
44 124 99 0 29 -30 74 -60 90 -32 17 -54 18 -87 5z"/>
<path d="M1223 5764 c-91 -46 -52 -188 53 -188 28 0 43 7 65 32 39 43 39 91 2
132 -34 37 -77 46 -120 24z"/>
<path d="M1500 5767 c-14 -7 -33 -29 -43 -49 -16 -32 -16 -40 -4 -70 27 -63
75 -87 131 -64 34 14 66 58 66 91 0 29 -30 74 -60 90 -35 18 -57 19 -90 2z"/>
<path d="M1784 5771 c-30 -13 -64 -59 -64 -88 0 -63 68 -121 125 -107 37 9 75
59 75 100 0 64 -78 119 -136 95z"/>
<path d="M2324 5765 c-78 -40 -66 -156 20 -185 95 -31 167 85 99 160 -34 37
-77 46 -119 25z"/>
<path d="M2884 5770 c-31 -12 -64 -59 -64 -89 0 -66 75 -124 133 -102 43 17
67 51 67 97 0 35 -5 47 -35 73 -36 31 -62 37 -101 21z"/>
<path d="M3150 5768 c-14 -7 -33 -30 -43 -50 -16 -32 -16 -40 -4 -70 20 -47
52 -72 92 -72 64 0 115 61 101 119 -16 63 -91 101 -146 73z"/>
<path d="M3434 5770 c-31 -12 -64 -59 -64 -89 0 -41 34 -88 74 -101 29 -9 41
-8 69 5 66 31 77 107 23 161 -34 34 -61 41 -102 24z"/>
<path d="M7290 5773 c-30 -11 -60 -47 -66 -79 -8 -42 19 -88 64 -110 30 -14
39 -14 71 -2 51 19 77 73 61 124 -18 54 -79 85 -130 67z"/>
<path d="M7833 5770 c-34 -14 -65 -69 -58 -105 6 -35 48 -81 81 -89 52 -13
124 44 124 99 0 29 -30 74 -60 90 -32 17 -54 18 -87 5z"/>
<path d="M8101 5767 c-77 -45 -63 -158 23 -187 94 -31 166 86 99 160 -33 36
-86 47 -122 27z"/>
<path d="M8655 5766 c-81 -36 -69 -157 19 -186 94 -31 166 86 99 160 -33 35
-76 45 -118 26z"/>
<path d="M9185 5747 c-55 -55 -40 -133 31 -163 44 -18 77 -10 109 28 51 61 14
152 -67 165 -33 5 -41 2 -73 -30z"/>
<path d="M9483 5770 c-34 -14 -65 -69 -58 -105 6 -35 48 -81 81 -89 52 -13
124 44 124 99 0 29 -30 74 -60 90 -32 17 -54 18 -87 5z"/>
<path d="M9754 5764 c-81 -40 -68 -155 21 -184 28 -9 41 -8 68 5 66 31 77 107
23 161 -38 38 -64 42 -112 18z"/>
<path d="M4337 5520 c-123 -22 -187 -83 -187 -178 0 -51 3 -58 39 -92 50 -47
112 -65 309 -85 148 -15 218 -32 234 -58 4 -7 8 -27 8 -45 0 -43 -41 -68 -127
-78 -117 -12 -332 28 -412 76 -18 12 -35 20 -36 18 -2 -2 -5 -30 -6 -63 -3
-58 -2 -59 28 -72 17 -7 77 -22 134 -33 88 -18 128 -21 254 -17 174 5 213 15
268 66 34 32 40 44 45 91 7 74 -15 112 -84 146 -52 26 -130 40 -342 63 -135
14 -176 44 -158 116 18 72 256 75 476 6 36 -12 68 -21 71 -21 3 0 6 27 6 60 1
67 9 61 -107 86 -86 18 -341 27 -413 14z"/>
<path d="M5020 5203 l0 -313 71 0 71 0 -7 250 c-5 173 -4 250 3 250 6 0 35
-28 65 -62 61 -71 290 -356 325 -405 l23 -33 100 0 99 0 0 313 0 313 -71 0
-72 -1 2 -253 c1 -138 0 -252 -2 -252 -6 0 -174 208 -304 375 l-100 130 -102
1 -101 0 0 -313z"/>
<path d="M5924 5208 l1 -313 225 -3 c313 -4 400 13 464 88 34 41 36 114 5 154
-29 37 -92 67 -155 73 -59 6 -74 23 -21 23 44 1 109 32 135 65 32 40 30 114
-3 153 -51 61 -81 66 -381 70 l-270 3 0 -313z m493 196 c48 -35 44 -113 -7
-139 -37 -19 -182 -28 -275 -18 l-70 8 -3 35 c-2 19 -1 59 3 89 l7 53 158 -3
c142 -4 161 -6 187 -25z m13 -260 c67 -27 67 -100 0 -135 -30 -16 -58 -19
-196 -19 l-162 0 -4 78 c-3 42 -3 80 -1 85 2 4 76 7 163 7 124 0 169 -4 200
-16z"/>
<path d="M1482 5475 c-35 -30 -45 -69 -27 -111 17 -41 51 -64 93 -64 46 0 102
55 102 100 0 23 -9 42 -34 66 -43 43 -90 46 -134 9z"/>
<path d="M1749 5471 c-42 -42 -40 -92 5 -137 45 -45 95 -47 137 -5 64 65 20
171 -71 171 -33 0 -48 -6 -71 -29z"/>
<path d="M2032 5475 c-38 -32 -48 -74 -28 -113 34 -66 105 -81 158 -33 27 24
33 36 33 71 0 35 -6 47 -33 71 -42 37 -89 39 -130 4z"/>
<path d="M2581 5474 c-26 -22 -31 -33 -31 -71 0 -37 5 -50 31 -74 44 -41 90
-40 135 5 25 25 34 43 34 66 0 23 -9 42 -34 66 -43 43 -90 46 -135 8z"/>
<path d="M2855 5477 c-18 -15 -28 -36 -32 -64 -5 -39 -2 -46 30 -78 46 -46 95
-49 138 -6 64 64 20 171 -70 171 -27 0 -48 -7 -66 -23z"/>
<path d="M7257 5476 c-49 -45 -44 -113 11 -156 52 -42 142 -8 157 60 20 89
-101 158 -168 96z"/>
<path d="M7823 5488 c-12 -6 -29 -26 -38 -45 -13 -27 -14 -40 -5 -68 25 -76
104 -98 162 -46 88 78 -11 211 -119 159z"/>
<path d="M8373 5488 c-11 -5 -29 -25 -38 -43 -22 -40 -14 -77 25 -116 39 -40
88 -39 132 0 88 78 -11 211 -119 159z"/>
<path d="M8629 5471 c-42 -42 -40 -92 5 -137 45 -45 95 -47 137 -5 23 23 29
38 29 71 0 33 -6 48 -29 71 -23 23 -38 29 -71 29 -33 0 -48 -6 -71 -29z"/>
<path d="M8925 5488 c-42 -24 -60 -78 -41 -123 18 -42 52 -65 94 -65 46 0 102
55 102 100 0 46 -56 100 -101 100 -19 0 -43 -6 -54 -12z"/>
<path d="M9179 5471 c-42 -42 -40 -92 5 -137 45 -45 95 -47 137 -5 23 23 29
38 29 71 0 33 -6 48 -29 71 -23 23 -38 29 -71 29 -33 0 -48 -6 -71 -29z"/>
<path d="M9729 5471 c-42 -42 -40 -92 5 -137 45 -45 95 -47 137 -5 23 23 29
38 29 71 0 33 -6 48 -29 71 -23 23 -38 29 -71 29 -33 0 -48 -6 -71 -29z"/>
<path d="M953 5220 c-34 -14 -65 -69 -58 -105 6 -35 48 -81 81 -89 52 -13 124
44 124 99 0 29 -30 74 -60 90 -32 17 -54 18 -87 5z"/>
<path d="M2053 5220 c-34 -14 -65 -69 -58 -105 6 -35 48 -81 81 -89 52 -13
124 44 124 99 0 29 -30 74 -60 90 -32 17 -54 18 -87 5z"/>
<path d="M2304 5196 c-38 -38 -43 -70 -18 -117 18 -36 73 -62 109 -53 38 9 75
59 75 101 0 48 -54 103 -100 103 -23 0 -41 -9 -66 -34z"/>
<path d="M3404 5196 c-40 -40 -44 -75 -15 -122 52 -86 181 -50 181 49 0 52
-52 107 -100 107 -23 0 -41 -9 -66 -34z"/>
<path d="M3698 5214 c-34 -18 -48 -43 -48 -86 0 -43 24 -76 67 -95 31 -12 38
-12 71 4 76 37 82 124 13 170 -39 26 -65 28 -103 7z"/>
<path d="M7285 5221 c-31 -13 -55 -45 -61 -83 -5 -29 -1 -41 25 -70 38 -44 70
-53 116 -34 74 31 80 135 11 177 -33 20 -58 23 -91 10z"/>
<path d="M7551 5216 c-48 -27 -66 -100 -35 -145 9 -13 32 -29 50 -37 29 -12
39 -12 68 0 74 31 88 106 32 162 -37 37 -73 43 -115 20z"/>
<path d="M8084 5196 c-39 -39 -45 -85 -18 -125 21 -30 71 -51 107 -44 39 8 77
57 77 100 0 48 -54 103 -100 103 -23 0 -41 -9 -66 -34z"/>
<path d="M8383 5220 c-34 -14 -65 -69 -58 -105 6 -35 48 -81 81 -89 36 -9 90
18 109 55 43 82 -45 174 -132 139z"/>
<path d="M1749 4921 c-43 -43 -40 -92 6 -138 32 -32 39 -35 78 -30 55 7 87 43
87 97 0 90 -107 135 -171 71z"/>
<path d="M2299 4921 c-43 -43 -40 -92 6 -138 32 -32 39 -35 78 -30 125 17 113
197 -13 197 -33 0 -48 -6 -71 -29z"/>
<path d="M2576 4919 c-44 -52 -33 -125 24 -154 36 -19 63 -19 99 -1 57 30 66
98 20 151 -27 30 -37 35 -74 35 -36 0 -48 -5 -69 -31z"/>
<path d="M2867 4939 c-23 -13 -47 -62 -47 -95 0 -16 13 -39 35 -61 32 -32 39
-35 78 -30 55 8 87 43 87 98 0 56 -42 99 -97 99 -21 0 -46 -5 -56 -11z"/>
<path d="M3132 4925 c-38 -32 -46 -65 -28 -109 33 -78 137 -87 179 -16 25 42
21 75 -14 115 -39 45 -91 49 -137 10z"/>
<path d="M3676 4919 c-35 -41 -36 -100 -2 -134 43 -43 106 -45 146 -5 63 63
16 170 -75 170 -36 0 -48 -5 -69 -31z"/>
<path d="M7255 4926 c-31 -31 -40 -69 -25 -105 17 -42 43 -62 87 -68 75 -10
133 70 99 136 -34 64 -115 83 -161 37z"/>
<path d="M8629 4921 c-43 -43 -40 -92 6 -138 32 -32 39 -35 78 -30 125 17 113
197 -13 197 -33 0 -48 -6 -71 -29z"/>
<path d="M8907 4925 c-31 -32 -39 -71 -23 -110 17 -41 38 -56 85 -62 36 -5 44
-2 76 30 47 47 48 86 1 133 -44 44 -100 47 -139 9z"/>
<path d="M9179 4921 c-43 -43 -40 -92 6 -138 32 -32 39 -35 78 -30 55 7 87 43
87 97 0 90 -107 135 -171 71z"/>
<path d="M1223 4664 c-38 -19 -58 -62 -49 -107 22 -116 196 -103 196 15 0 75
-80 126 -147 92z"/>
<path d="M1494 4661 c-42 -25 -58 -72 -40 -114 29 -70 98 -92 153 -50 57 42
51 126 -11 164 -39 24 -63 24 -102 0z"/>
<path d="M2048 4664 c-36 -19 -61 -68 -53 -103 7 -32 49 -75 82 -85 49 -15
123 45 123 99 0 29 -30 74 -60 90 -36 19 -57 18 -92 -1z"/>
<path d="M2884 4670 c-31 -12 -64 -59 -64 -89 0 -66 75 -124 133 -102 75 29
91 109 33 167 -34 34 -61 41 -102 24z"/>
<path d="M3434 4670 c-30 -12 -64 -58 -64 -87 0 -70 71 -124 135 -103 42 14
65 48 65 96 0 28 -8 44 -34 70 -34 34 -61 41 -102 24z"/>
<path d="M7005 4669 c-81 -47 -70 -159 19 -189 94 -31 166 86 99 160 -31 34
-86 48 -118 29z"/>
<path d="M7290 4673 c-57 -21 -84 -91 -54 -142 47 -79 156 -71 184 13 25 77
-55 156 -130 129z"/>
<path d="M7551 4667 c-77 -45 -63 -158 23 -187 94 -31 166 86 99 160 -33 36
-86 47 -122 27z"/>
<path d="M8098 4663 c-74 -47 -59 -155 26 -183 94 -31 166 86 99 160 -35 38
-86 48 -125 23z"/>
<path d="M8655 4666 c-82 -36 -69 -157 20 -186 94 -31 165 85 98 160 -33 35
-76 45 -118 26z"/>
<path d="M8924 4661 c-42 -25 -58 -72 -40 -114 29 -70 98 -92 153 -50 57 42
51 126 -11 164 -39 24 -63 24 -102 0z"/>
<path d="M9214 4671 c-30 -13 -64 -59 -64 -88 0 -40 29 -84 66 -99 42 -17 69
-11 107 24 73 68 -16 202 -109 163z"/>
<path d="M9754 4665 c-81 -41 -68 -156 21 -185 94 -31 165 85 98 160 -34 37
-77 46 -119 25z"/>
<path d="M1199 4371 c-42 -42 -40 -92 5 -137 45 -45 95 -47 137 -5 64 65 20
171 -71 171 -33 0 -48 -6 -71 -29z"/>
<path d="M2579 4371 c-23 -23 -29 -38 -29 -71 0 -53 42 -100 90 -100 99 0 144
98 76 166 -45 45 -95 47 -137 5z"/>
<path d="M3405 4377 c-18 -15 -28 -36 -32 -64 -5 -39 -2 -46 30 -78 46 -46 95
-49 138 -6 64 64 20 171 -70 171 -27 0 -48 -7 -66 -23z"/>
<path d="M3679 4371 c-63 -63 -20 -171 68 -171 93 1 135 100 69 166 -45 45
-95 47 -137 5z"/>
<path d="M7823 4388 c-12 -6 -29 -26 -38 -45 -13 -27 -14 -40 -5 -68 25 -76
104 -98 162 -46 88 78 -11 211 -119 159z"/>
<path d="M8079 4371 c-42 -42 -40 -92 5 -137 45 -45 95 -47 137 -5 41 42 41
98 -2 140 -42 43 -98 43 -140 2z"/>
<path d="M8629 4371 c-42 -42 -40 -92 5 -137 45 -45 95 -47 137 -5 64 65 19
171 -73 171 -30 0 -46 -7 -69 -29z"/>
<path d="M8912 4375 c-35 -30 -45 -69 -27 -111 33 -79 135 -87 178 -14 26 44
21 78 -17 116 -43 43 -90 46 -134 9z"/>
<path d="M9462 4375 c-38 -32 -48 -74 -28 -114 35 -67 103 -81 158 -32 27 24
33 36 33 71 0 35 -6 47 -33 71 -42 37 -89 39 -130 4z"/>
<path d="M9729 4371 c-42 -42 -40 -92 5 -137 45 -45 95 -47 137 -5 64 65 20
171 -71 171 -33 0 -48 -6 -71 -29z"/>
<path d="M948 4114 c-36 -19 -62 -68 -53 -103 9 -35 52 -79 86 -86 51 -11 119
45 119 100 0 29 -30 74 -60 90 -36 19 -57 18 -92 -1z"/>
<path d="M2334 4121 c-40 -17 -66 -62 -61 -104 12 -91 107 -124 171 -60 71 70
-18 202 -110 164z"/>
<path d="M2884 4121 c-30 -13 -64 -59 -64 -88 0 -63 64 -120 120 -108 35 8 76
47 82 79 14 72 -72 144 -138 117z"/>
<path d="M3434 4121 c-30 -13 -64 -59 -64 -88 0 -13 7 -37 15 -53 49 -94 185
-61 185 44 0 66 -78 121 -136 97z"/>
<path d="M3698 4114 c-56 -30 -66 -104 -20 -154 36 -40 77 -47 120 -20 66 41
68 123 3 167 -39 26 -65 28 -103 7z"/>
<path d="M7006 4115 c-40 -21 -55 -44 -56 -85 0 -42 20 -75 61 -96 40 -20 82
-10 114 28 44 52 28 120 -35 153 -36 19 -48 19 -84 0z"/>
<path d="M7554 4114 c-76 -37 -71 -139 7 -180 40 -20 82 -10 114 28 44 52 28
120 -35 153 -36 19 -47 18 -86 -1z"/>
<path d="M8114 4121 c-56 -24 -81 -102 -48 -149 23 -33 70 -54 104 -47 41 9
80 58 80 101 0 64 -78 119 -136 95z"/>
<path d="M8378 4114 c-30 -16 -58 -61 -58 -93 0 -29 56 -88 90 -96 38 -8 85
17 106 57 23 44 5 101 -39 128 -38 24 -62 24 -99 4z"/>
<path d="M8664 4121 c-56 -24 -81 -102 -48 -149 23 -33 70 -54 104 -47 41 9
80 58 80 101 0 64 -78 119 -136 95z"/>
<path d="M8924 4111 c-57 -35 -64 -108 -15 -155 39 -38 79 -42 121 -14 64 44
62 129 -4 169 -39 24 -63 24 -102 0z"/>
<path d="M928 3823 c-36 -38 -43 -74 -24 -111 34 -65 101 -81 154 -37 38 32
48 74 28 114 -35 66 -112 83 -158 34z"/>
<path d="M1482 3825 c-35 -30 -45 -69 -27 -111 17 -41 51 -64 93 -64 46 0 102
55 102 100 0 23 -10 42 -34 66 -43 43 -90 46 -134 9z"/>
<path d="M2032 3825 c-53 -45 -49 -118 10 -159 69 -49 171 21 153 104 -9 41
-58 80 -100 80 -21 0 -44 -9 -63 -25z"/>
<path d="M2305 3827 c-18 -15 -28 -36 -32 -64 -5 -39 -2 -46 30 -78 46 -46 95
-49 138 -6 64 64 20 171 -70 171 -27 0 -48 -7 -66 -23z"/>
<path d="M2579 3821 c-23 -23 -29 -38 -29 -71 0 -53 42 -100 90 -100 99 0 144
98 76 166 -45 45 -95 47 -137 5z"/>
<path d="M4229 3821 c-48 -49 -38 -125 21 -156 73 -38 150 9 150 91 0 16 -13
39 -34 60 -45 45 -95 47 -137 5z"/>
<path d="M5329 3821 c-71 -72 -2 -191 97 -167 75 19 97 99 43 161 -42 47 -96
49 -140 6z"/>
<path d="M6429 3821 c-70 -71 -5 -186 95 -167 76 14 100 98 45 161 -42 47 -96
49 -140 6z"/>
<path d="M6707 3824 c-48 -48 -41 -119 15 -158 52 -37 139 0 153 64 20 90
-103 159 -168 94z"/>
<path d="M8362 3825 c-38 -32 -48 -74 -28 -114 34 -64 102 -80 154 -36 38 32
48 74 28 114 -34 64 -102 80 -154 36z"/>
<path d="M8629 3821 c-42 -42 -40 -92 5 -137 45 -45 95 -47 137 -5 22 23 29
39 29 69 0 92 -106 137 -171 73z"/>
<path d="M8912 3825 c-35 -30 -45 -69 -27 -111 30 -72 105 -86 162 -29 32 32
35 40 30 73 -13 81 -104 118 -165 67z"/>
<path d="M9462 3825 c-38 -32 -48 -74 -28 -114 35 -67 103 -81 158 -32 27 24
33 36 33 71 0 35 -6 47 -33 71 -42 37 -89 39 -130 4z"/>
<path d="M948 3564 c-37 -19 -61 -68 -53 -104 8 -35 47 -76 80 -84 37 -9 91
18 110 55 24 45 7 102 -38 129 -38 24 -62 24 -99 4z"/>
<path d="M1494 3561 c-38 -23 -59 -76 -45 -112 26 -68 104 -93 158 -52 57 42
51 126 -11 164 -39 24 -63 24 -102 0z"/>
<path d="M2334 3571 c-33 -14 -64 -60 -64 -95 0 -41 24 -75 67 -93 67 -28 133
17 133 91 0 66 -78 121 -136 97z"/>
<path d="M2884 3570 c-30 -12 -64 -58 -64 -87 0 -70 71 -124 135 -103 42 14
65 48 65 96 0 28 -8 44 -34 70 -34 34 -61 41 -102 24z"/>
<path d="M4798 3564 c-56 -30 -66 -104 -20 -154 36 -40 77 -47 120 -20 66 41
68 123 3 167 -39 26 -65 28 -103 7z"/>
<path d="M5085 3571 c-86 -36 -80 -161 9 -191 51 -16 105 10 124 61 12 32 12
41 -2 71 -26 54 -81 79 -131 59z"/>
<path d="M6185 3571 c-86 -36 -80 -161 9 -191 51 -16 105 10 124 61 12 33 12
41 -3 73 -26 54 -79 77 -130 57z"/>
<path d="M6451 3566 c-48 -27 -66 -100 -35 -144 41 -59 114 -63 159 -10 44 52
28 120 -35 153 -35 18 -57 18 -89 1z"/>
<path d="M7000 3564 c-38 -28 -49 -46 -50 -84 0 -64 62 -118 120 -105 41 9 80
58 80 101 0 73 -93 128 -150 88z"/>
<path d="M7551 3567 c-48 -28 -66 -101 -35 -145 23 -33 70 -54 104 -47 41 9
80 58 80 101 0 70 -89 125 -149 91z"/>
<path d="M8378 3564 c-29 -15 -58 -61 -58 -89 0 -30 33 -74 67 -90 28 -13 40
-14 69 -5 34 12 74 59 74 88 0 29 -34 84 -61 97 -35 19 -56 18 -91 -1z"/>
<path d="M8924 3561 c-45 -27 -61 -79 -39 -125 22 -46 74 -72 117 -57 45 16
67 39 74 76 7 42 -17 90 -56 110 -38 20 -58 19 -96 -4z"/>
<path d="M9214 3571 c-59 -25 -82 -106 -44 -154 60 -76 180 -40 180 55 0 68
-76 124 -136 99z"/>
<path d="M9478 3564 c-27 -14 -58 -60 -58 -84 0 -31 34 -80 66 -95 46 -22 98
-6 125 39 24 39 24 63 0 100 -36 54 -83 68 -133 40z"/>
<path d="M9764 3570 c-33 -13 -64 -59 -64 -95 0 -70 79 -120 143 -90 66 31 77
107 23 161 -34 34 -61 41 -102 24z"/>
<path d="M932 3275 c-38 -32 -48 -74 -28 -114 42 -80 144 -82 181 -4 21 43 13
76 -25 114 -37 38 -86 39 -128 4z"/>
<path d="M1208 3281 c-29 -23 -45 -75 -34 -109 13 -40 56 -72 98 -72 84 0 130
102 75 165 -32 38 -101 45 -139 16z"/>
<path d="M1749 3271 c-42 -42 -40 -92 5 -137 26 -26 42 -34 71 -34 52 0 95 44
95 97 -1 91 -107 137 -171 74z"/>
<path d="M2579 3271 c-63 -63 -20 -171 68 -171 93 1 135 100 69 166 -45 45
-95 47 -137 5z"/>
<path d="M3420 3287 c-58 -29 -66 -103 -16 -153 45 -45 95 -47 137 -5 83 83
-15 212 -121 158z"/>
<path d="M3679 3271 c-62 -62 -20 -171 66 -171 47 0 71 13 90 50 24 46 19 78
-19 116 -45 45 -95 47 -137 5z"/>
<path d="M3969 3285 c-57 -31 -61 -114 -7 -160 54 -46 126 -27 154 41 12 29
12 39 0 68 -26 61 -88 83 -147 51z"/>
<path d="M4521 3286 c-59 -33 -67 -102 -17 -152 45 -45 95 -47 137 -5 83 83
-17 214 -120 157z"/>
<path d="M4779 3271 c-64 -64 -20 -171 70 -171 55 0 90 32 98 87 5 39 2 46
-30 78 -46 46 -95 49 -138 6z"/>
<path d="M5069 3285 c-57 -31 -61 -114 -7 -160 75 -63 188 9 158 101 -22 65
-90 92 -151 59z"/>
<path d="M5619 3285 c-57 -31 -61 -114 -7 -160 54 -46 126 -27 154 41 12 29
12 39 0 68 -26 61 -88 83 -147 51z"/>
<path d="M6169 3285 c-57 -31 -61 -114 -7 -160 75 -63 188 9 158 101 -22 65
-90 92 -151 59z"/>
<path d="M6723 3288 c-29 -14 -56 -73 -48 -105 3 -14 19 -38 35 -54 37 -38 86
-39 128 -4 93 78 -5 216 -115 163z"/>
<path d="M6979 3271 c-41 -42 -41 -98 2 -140 85 -85 214 16 152 119 -33 57
-107 67 -154 21z"/>
<path d="M7269 3285 c-32 -17 -54 -66 -45 -101 24 -95 150 -113 191 -27 42 89
-57 176 -146 128z"/>
<path d="M7529 3271 c-63 -64 -17 -170 74 -171 54 0 97 43 97 97 -1 91 -107
137 -171 74z"/>
<path d="M7812 3275 c-38 -32 -48 -74 -28 -114 42 -80 144 -82 181 -4 21 43
13 76 -25 114 -37 38 -86 39 -128 4z"/>
<path d="M8079 3271 c-63 -63 -16 -170 74 -171 100 -1 134 140 46 186 -45 23
-87 18 -120 -15z"/>
<path d="M8362 3275 c-53 -45 -49 -118 10 -159 79 -56 188 37 144 123 -34 64
-102 80 -154 36z"/>
<path d="M8629 3271 c-63 -64 -17 -170 74 -171 54 0 97 43 97 97 -1 91 -107
137 -171 74z"/>
<path d="M3152 3015 c-38 -17 -66 -71 -56 -110 3 -14 22 -39 42 -56 29 -26 41
-30 70 -25 103 16 122 152 27 192 -41 17 -42 17 -83 -1z"/>
<path d="M4260 3019 c-37 -15 -60 -49 -60 -92 0 -31 7 -46 35 -74 32 -32 40
-35 73 -30 44 7 92 55 92 93 0 41 -29 84 -65 100 -39 16 -41 16 -75 3z"/>
<path d="M5906 3015 c-41 -22 -55 -44 -56 -87 0 -57 44 -103 100 -103 35 0 47
6 71 33 45 51 35 116 -23 152 -39 24 -54 25 -92 5z"/>
<path d="M6174 3011 c-59 -36 -68 -108 -19 -156 53 -54 136 -35 163 36 12 33
12 41 -3 72 -16 33 -64 67 -97 67 -7 0 -27 -9 -44 -19z"/>
<path d="M6728 3014 c-29 -15 -58 -61 -58 -90 0 -29 39 -81 70 -94 16 -7 41
-9 56 -6 33 9 71 47 79 79 10 37 -20 93 -60 111 -40 19 -52 19 -87 0z"/>
<path d="M7283 3015 c-39 -16 -69 -71 -60 -107 9 -34 50 -76 83 -84 41 -10 95
22 112 67 12 33 12 41 -3 72 -10 21 -30 42 -50 51 -39 19 -41 19 -82 1z"/>
<path d="M7564 3020 c-62 -25 -82 -107 -39 -158 33 -39 74 -48 118 -27 78 37
76 139 -3 180 -32 17 -45 18 -76 5z"/>
<path d="M8664 3020 c-34 -13 -64 -59 -64 -97 0 -40 41 -88 84 -99 36 -9 84
13 101 47 30 58 12 114 -45 144 -32 17 -45 18 -76 5z"/>
<path d="M8930 3012 c-49 -24 -68 -77 -45 -125 19 -41 72 -73 107 -64 100 25
115 147 24 191 -42 20 -43 20 -86 -2z"/>
<path d="M9214 3020 c-33 -13 -64 -59 -64 -95 0 -39 28 -78 69 -95 39 -16 71
-8 104 26 48 48 32 126 -33 159 -32 17 -45 18 -76 5z"/>
<path d="M9764 3020 c-34 -13 -64 -59 -64 -97 0 -40 41 -88 84 -99 36 -9 84
13 101 47 30 58 12 114 -45 144 -32 17 -45 18 -76 5z"/>
<path d="M1192 2779 c-147 -29 -275 -146 -316 -290 -15 -49 -16 -131 -14 -685
l3 -629 23 -58 c31 -75 118 -170 191 -207 102 -51 118 -52 776 -48 l610 3 77
37 c93 44 156 106 201 198 l32 65 0 660 0 660 -32 66 c-57 117 -173 204 -303
229 -64 12 -1185 12 -1248 -1z m1242 -284 c18 -9 42 -33 54 -54 22 -38 22 -43
22 -615 0 -558 -1 -578 -20 -616 -37 -73 -10 -70 -671 -70 -576 0 -592 1 -624
20 -65 40 -65 37 -65 665 0 375 4 573 11 592 13 34 47 72 74 83 11 5 283 9
603 9 505 1 588 -1 616 -14z"/>
<path d="M1506 2230 c-15 -5 -37 -17 -48 -27 -46 -42 -48 -55 -48 -381 0 -438
-26 -412 413 -412 273 0 301 2 335 19 71 37 72 41 72 391 0 444 24 420 -410
419 -157 0 -298 -5 -314 -9z"/>
<path d="M3964 2732 c-54 -43 -58 -100 -10 -148 43 -43 90 -46 134 -9 72 60
27 175 -68 175 -19 0 -45 -8 -56 -18z"/>
<path d="M4521 2736 c-59 -33 -67 -102 -17 -152 45 -45 95 -47 137 -5 83 83
-17 214 -120 157z"/>
<path d="M4779 2721 c-23 -23 -29 -38 -29 -71 0 -103 138 -140 185 -50 24 46
19 78 -19 116 -45 45 -95 47 -137 5z"/>
<path d="M5879 2721 c-64 -64 -19 -171 71 -171 54 0 90 32 97 87 5 39 2 46
-30 78 -46 46 -95 49 -138 6z"/>
<path d="M6429 2721 c-63 -64 -17 -170 74 -171 53 0 97 43 97 95 0 29 -8 45
-34 71 -45 45 -95 47 -137 5z"/>
<path d="M6979 2721 c-41 -42 -41 -98 2 -140 42 -43 98 -43 140 -2 42 42 40
92 -5 137 -45 45 -95 47 -137 5z"/>
<path d="M7253 2715 c-32 -32 -35 -40 -30 -73 13 -78 102 -118 161 -71 55 43
54 116 -1 159 -41 32 -89 26 -130 -15z"/>
<path d="M7529 2721 c-63 -64 -17 -170 74 -171 99 0 133 132 47 183 -44 26
-87 22 -121 -12z"/>
<path d="M8079 2721 c-42 -42 -40 -92 5 -137 45 -45 95 -47 137 -5 42 42 40
92 -5 137 -45 45 -95 47 -137 5z"/>
<path d="M8629 2721 c-42 -42 -40 -92 5 -137 45 -45 95 -47 137 -5 63 64 17
170 -74 171 -29 0 -46 -7 -68 -29z"/>
<path d="M8912 2725 c-35 -30 -45 -69 -27 -111 33 -80 136 -87 179 -12 55 92
-69 193 -152 123z"/>
<path d="M9197 2739 c-23 -13 -47 -62 -47 -95 0 -41 59 -94 105 -94 53 0 95
44 95 98 0 76 -88 128 -153 91z"/>
<path d="M9462 2725 c-38 -32 -48 -74 -28 -114 41 -77 137 -83 180 -9 55 93
-69 193 -152 123z"/>
<path d="M3144 2461 c-87 -53 -46 -186 56 -186 104 0 134 142 40 190 -38 20
-58 19 -96 -4z"/>
<path d="M4534 2470 c-31 -12 -64 -59 -64 -89 0 -38 33 -86 69 -100 64 -27
131 19 131 90 0 33 -6 47 -34 75 -34 34 -61 41 -102 24z"/>
<path d="M4798 2464 c-57 -30 -66 -104 -19 -156 24 -27 36 -33 71 -33 35 0 47
6 71 33 16 18 29 44 29 58 0 38 -27 82 -60 99 -36 19 -57 18 -92 -1z"/>
<path d="M5348 2463 c-55 -34 -64 -105 -19 -155 24 -27 36 -33 71 -33 35 0 47
6 71 33 48 54 35 123 -31 157 -37 19 -58 19 -92 -2z"/>
<path d="M6454 2464 c-60 -29 -72 -104 -25 -156 24 -27 36 -33 71 -33 35 0 47
6 71 33 48 54 35 123 -31 157 -36 19 -47 18 -86 -1z"/>
<path d="M6728 2464 c-29 -15 -58 -61 -58 -91 0 -36 38 -82 78 -94 48 -14 94
6 117 52 22 42 11 81 -31 119 -38 33 -65 37 -106 14z"/>
<path d="M7014 2470 c-65 -26 -83 -109 -35 -162 24 -27 36 -33 71 -33 35 0 47
6 71 33 48 54 35 123 -31 157 -32 17 -45 18 -76 5z"/>
<path d="M7564 2470 c-12 -4 -31 -21 -43 -36 -59 -75 23 -189 111 -155 88 33
92 143 8 186 -32 17 -45 18 -76 5z"/>
<path d="M8664 2471 c-65 -28 -84 -113 -35 -161 38 -38 71 -46 114 -25 62 29
76 104 30 155 -30 32 -75 45 -109 31z"/>
<path d="M9214 2471 c-56 -24 -81 -102 -48 -149 57 -82 184 -49 184 49 0 69
-76 125 -136 100z"/>
<path d="M9474 2461 c-70 -42 -62 -141 13 -176 89 -43 176 54 124 138 -35 57
-84 70 -137 38z"/>
<path d="M3420 2187 c-58 -29 -66 -103 -16 -153 45 -45 95 -47 137 -5 83 83
-15 212 -121 158z"/>
<path d="M3679 2171 c-64 -64 -20 -171 70 -171 55 0 90 32 98 87 5 39 2 46
-30 78 -46 46 -95 49 -138 6z"/>
<path d="M4521 2186 c-59 -33 -67 -102 -17 -152 45 -45 95 -47 137 -5 83 83
-17 214 -120 157z"/>
<path d="M4779 2171 c-64 -64 -20 -171 70 -171 55 0 90 32 98 87 5 39 2 46
-30 78 -46 46 -95 49 -138 6z"/>
<path d="M6429 2171 c-33 -34 -38 -75 -14 -121 46 -88 185 -54 185 45 0 29 -8
45 -34 71 -45 45 -95 47 -137 5z"/>
<path d="M6712 2175 c-38 -32 -48 -74 -28 -114 34 -64 102 -80 154 -36 38 32
48 74 28 114 -34 64 -102 80 -154 36z"/>
<path d="M6979 2171 c-22 -23 -29 -39 -29 -69 0 -92 106 -137 171 -73 42 42
40 92 -5 137 -45 45 -95 47 -137 5z"/>
<path d="M7529 2171 c-33 -34 -38 -75 -14 -121 19 -37 43 -50 90 -50 47 0 95
44 95 89 0 97 -105 148 -171 82z"/>
<path d="M7812 2175 c-53 -45 -49 -118 10 -159 47 -33 126 -10 148 43 16 39 6
76 -30 112 -37 38 -86 39 -128 4z"/>
<path d="M8079 2171 c-63 -64 -17 -170 74 -171 50 0 97 43 97 90 0 95 -106
145 -171 81z"/>
<path d="M8362 2175 c-38 -32 -48 -74 -28 -114 42 -80 144 -82 181 -4 21 43
13 76 -25 114 -37 38 -86 39 -128 4z"/>
<path d="M8629 2171 c-63 -64 -17 -170 74 -171 100 0 134 140 46 186 -45 23
-87 18 -120 -15z"/>
<path d="M8921 2184 c-13 -9 -29 -32 -37 -50 -12 -29 -12 -39 0 -68 8 -18 24
-41 37 -50 48 -33 126 -11 149 43 36 88 -71 179 -149 125z"/>
<path d="M9462 2175 c-53 -45 -49 -118 10 -159 77 -54 183 29 148 115 -29 69
-104 90 -158 44z"/>
<path d="M9729 2171 c-66 -66 -15 -171 82 -171 42 0 89 48 89 90 0 97 -105
147 -171 81z"/>
<path d="M3434 1916 c-66 -29 -84 -101 -38 -155 32 -38 80 -49 122 -27 38 20
52 44 52 88 0 43 -24 76 -66 94 -39 16 -32 16 -70 0z"/>
<path d="M5375 1922 c-51 -17 -75 -50 -75 -102 0 -44 56 -100 100 -100 45 0
100 56 100 102 0 43 -23 76 -66 94 -18 8 -35 14 -36 13 -2 -1 -12 -4 -23 -7z"/>
<path d="M5640 1919 c-86 -34 -91 -142 -9 -185 58 -30 116 -4 140 63 24 70
-61 149 -131 122z"/>
<path d="M6183 1915 c-32 -14 -63 -59 -63 -92 0 -31 36 -79 69 -93 98 -40 181
86 106 159 -37 36 -71 44 -112 26z"/>
<path d="M6473 1923 c-35 -7 -73 -59 -73 -100 0 -44 54 -103 95 -103 81 0 134
95 89 159 -14 19 -76 55 -86 50 -2 -1 -13 -4 -25 -6z"/>
<path d="M6733 1915 c-32 -13 -63 -59 -63 -91 0 -29 39 -81 70 -94 44 -18 89
-2 118 40 29 43 24 83 -16 121 -34 34 -69 41 -109 24z"/>
<path d="M7573 1923 c-35 -7 -73 -59 -73 -100 0 -44 54 -103 94 -103 83 0 136
93 90 159 -14 19 -76 55 -86 50 -2 -1 -13 -4 -25 -6z"/>
<path d="M7830 1912 c-23 -11 -39 -29 -48 -53 -12 -33 -12 -41 3 -73 44 -93
166 -79 192 22 8 35 -22 87 -62 106 -41 20 -42 20 -85 -2z"/>
<path d="M8383 1915 c-32 -13 -63 -59 -63 -91 0 -29 39 -81 69 -94 57 -23 121
13 137 76 9 34 -23 90 -61 108 -39 19 -41 19 -82 1z"/>
<path d="M8664 1916 c-66 -29 -84 -101 -38 -155 61 -72 173 -34 174 59 0 45
-23 78 -66 96 -39 16 -32 16 -70 0z"/>
<path d="M8930 1912 c-23 -11 -39 -29 -48 -53 -37 -99 94 -183 166 -106 49 52
33 130 -32 161 -42 20 -43 20 -86 -2z"/>
<path d="M9480 1912 c-49 -24 -68 -77 -46 -124 33 -69 116 -86 164 -35 49 52
32 130 -34 162 -40 19 -42 19 -84 -3z"/>
<path d="M3421 1636 c-57 -32 -66 -98 -20 -151 42 -47 96 -49 140 -6 81 81
-19 213 -120 157z"/>
<path d="M3679 1621 c-64 -64 -20 -171 70 -171 55 0 90 32 98 87 5 39 2 46
-30 78 -46 46 -95 49 -138 6z"/>
<path d="M4229 1621 c-62 -62 -20 -171 66 -171 47 0 71 13 90 50 24 46 19 78
-19 116 -45 45 -95 47 -137 5z"/>
<path d="M4518 1633 c-57 -36 -63 -100 -14 -149 45 -45 95 -47 137 -5 83 83
-23 216 -123 154z"/>
<path d="M5053 1615 c-31 -31 -35 -40 -30 -72 14 -84 102 -121 165 -68 38 32
46 65 28 109 -30 71 -108 86 -163 31z"/>
<path d="M6712 1625 c-38 -32 -48 -74 -28 -114 35 -66 112 -83 158 -33 36 37
43 73 24 110 -34 65 -101 81 -154 37z"/>
<path d="M7554 1640 c-50 -20 -68 -84 -39 -140 46 -88 185 -54 185 45 0 29 -8
45 -34 71 -35 35 -68 42 -112 24z"/>
<path d="M8648 1634 c-88 -47 -48 -183 55 -184 99 0 133 132 47 183 -34 21
-66 21 -102 1z"/>
<path d="M8921 1634 c-13 -9 -29 -32 -37 -50 -12 -29 -12 -39 0 -68 35 -85
144 -90 186 -7 42 82 -72 178 -149 125z"/>
<path d="M9462 1625 c-53 -45 -49 -118 10 -159 77 -54 183 29 148 115 -29 69
-104 90 -158 44z"/>
<path d="M9755 1638 c-62 -34 -72 -98 -24 -153 42 -47 96 -49 140 -6 78 79
-19 213 -116 159z"/>
<path d="M3423 1361 c-56 -35 -70 -96 -33 -143 62 -79 180 -46 180 51 0 81
-82 132 -147 92z"/>
<path d="M3970 1358 c-43 -29 -58 -74 -40 -119 14 -33 62 -69 93 -69 34 0 79
31 93 66 12 29 12 39 1 67 -30 70 -90 93 -147 55z"/>
<path d="M4523 1361 c-56 -35 -67 -82 -34 -137 53 -87 181 -55 181 45 0 81
-82 132 -147 92z"/>
<path d="M4806 1365 c-42 -22 -55 -44 -56 -91 0 -56 43 -99 101 -99 34 0 46 6
70 33 32 36 36 69 14 112 -15 29 -60 60 -87 60 -7 0 -26 -7 -42 -15z"/>
<path d="M5364 1370 c-34 -13 -64 -59 -64 -97 0 -27 8 -43 35 -70 32 -32 40
-35 73 -30 47 8 92 55 92 98 0 37 -25 76 -61 95 -31 16 -45 17 -75 4z"/>
<path d="M6464 1370 c-65 -26 -83 -109 -35 -162 24 -27 36 -33 71 -33 35 0 47
6 71 33 48 54 35 123 -31 157 -32 17 -45 18 -76 5z"/>
<path d="M8930 1362 c-23 -11 -39 -29 -48 -53 -37 -99 94 -183 166 -106 49 52
32 130 -34 162 -40 19 -42 19 -84 -3z"/>
<path d="M3679 1071 c-64 -64 -20 -171 70 -171 55 0 90 32 98 87 5 39 2 46
-30 78 -46 46 -95 49 -138 6z"/>
<path d="M4229 1071 c-64 -64 -20 -171 70 -171 55 0 90 32 98 87 5 39 2 46
-30 78 -46 46 -95 49 -138 6z"/>
<path d="M5073 1088 c-31 -15 -56 -72 -48 -108 20 -91 150 -107 190 -23 41 86
-54 174 -142 131z"/>
<path d="M5604 1066 c-24 -24 -34 -43 -34 -66 0 -44 56 -100 99 -100 74 0 122
60 101 125 -26 79 -108 99 -166 41z"/>
<path d="M5879 1071 c-64 -64 -20 -171 70 -171 55 0 90 32 98 87 5 39 2 46
-30 78 -46 46 -95 49 -138 6z"/>
<path d="M6429 1071 c-22 -23 -29 -39 -29 -69 0 -92 106 -137 171 -73 42 42
40 92 -5 137 -45 45 -95 47 -137 5z"/>
<path d="M6708 1071 c-87 -78 8 -209 116 -160 32 15 60 72 51 106 -3 14 -19
38 -35 54 -39 40 -88 39 -132 0z"/>
<path d="M7529 1071 c-33 -34 -38 -75 -14 -121 46 -88 185 -54 185 45 0 29 -8
45 -34 71 -45 45 -95 47 -137 5z"/>
<path d="M8079 1071 c-41 -42 -41 -98 2 -140 42 -43 98 -43 140 -2 42 42 40
92 -5 137 -45 45 -95 47 -137 5z"/>
<path d="M9187 1076 c-70 -65 -29 -176 65 -176 56 0 98 43 98 98 0 33 -6 45
-35 71 -45 39 -91 41 -128 7z"/>
<path d="M9462 1075 c-53 -45 -49 -118 10 -159 77 -54 183 29 148 115 -29 69
-104 90 -158 44z"/>
</g>
</svg>
